<svg width="207" height="43" viewBox="0 0 207 43" fill="none" xmlns="http://www.w3.org/2000/svg">
<path d="M4 4.5L40 0L42.5 37L0 40L4 4.5Z" fill="#E2CA9E"/>
<path d="M89.5 3L94 39L57 41.5V3H89.5Z" fill="#E2CA9E"/>
<path d="M113.953 4L147.059 10.5915L152 39.7042L110 43L113.953 4Z" fill="#E2CA9E"/>
<path d="M166 8.70588L204.813 5L207 41H175.293L166 8.70588Z" fill="#E2CA9E"/>
<path d="M12.458 16.478H20.492V18.688H12.458V16.478ZM12.406 11.408H22.052V23.966H12.406V21.756H19.582V13.618H12.406V11.408ZM11.444 33.508L11.21 31.298L12.224 30.388L19.738 28.074C19.92 28.75 20.232 29.634 20.44 30.154C13.134 32.624 12.094 33.014 11.444 33.508ZM17.008 26.02L19.114 25.006C20.44 27.112 22.052 29.972 22.754 31.74L20.492 32.962C19.842 31.168 18.308 28.23 17.008 26.02ZM11.444 33.508C11.288 32.806 10.846 31.61 10.43 31.012C10.95 30.752 11.6 30.258 11.6 29.27V11.408H14.096V31.48C14.096 31.48 11.444 32.546 11.444 33.508ZM30.502 11.59H32.92V26.592C32.92 27.814 32.712 28.49 31.932 28.906C31.152 29.296 29.956 29.322 28.162 29.322C28.084 28.646 27.772 27.632 27.46 26.982C28.604 27.034 29.722 27.034 30.06 27.008C30.398 26.982 30.502 26.904 30.502 26.566V11.59ZM24.028 11.59H31.75V13.852H26.472V34.21H24.028V11.59Z" fill="#464646"/>
<path d="M71.05 18.194H84.206V20.352H71.05V18.194ZM70.036 13.02H84.986V15.204H70.036V13.02ZM70.114 22.848H84.882V25.032H70.114V22.848ZM76.302 10.03H78.72V19.416H76.302V10.03ZM79.656 20.014H82.074V31.454C82.074 32.728 81.788 33.404 80.904 33.768C79.994 34.132 78.642 34.158 76.614 34.158C76.51 33.508 76.146 32.52 75.808 31.87C77.264 31.922 78.694 31.922 79.11 31.896C79.526 31.896 79.656 31.792 79.656 31.402V20.014ZM71.466 26.826L73.494 25.682C74.664 26.982 76.12 28.828 76.796 30.024L74.612 31.324C74.014 30.128 72.636 28.178 71.466 26.826ZM62.99 11.72H69.568V29.114H62.99V26.904H67.28V13.93H62.99V11.72ZM63.094 19.208H68.372V21.392H63.094V19.208ZM61.82 11.72H64.108V31.324H61.82V11.72Z" fill="#464646"/>
<path d="M118.664 29.982H130.65V31.776H118.664V29.982ZM118.014 17.502H131.014V19.348H118.014V17.502ZM123.448 15.37H125.684V34.298H123.448V15.37ZM117.936 34.194C121.134 33.934 126.048 33.518 130.702 33.05L130.728 34.948C126.308 35.468 121.602 35.962 118.248 36.3L117.936 34.194ZM120.744 25.432V27.018H128.492V25.432H120.744ZM120.744 22.338V23.898H128.492V22.338H120.744ZM118.742 20.726H130.546V28.63H118.742V20.726ZM129.48 13.264L130.624 15.136C127.452 15.812 122.668 16.228 118.768 16.332C118.664 15.812 118.43 15.032 118.196 14.538C122.07 14.356 126.698 13.888 129.48 13.264ZM130.884 19.062H140.114V21.324H130.884V19.062ZM139.126 19.062H141.492C141.492 19.062 141.492 19.92 141.492 20.206C141.206 31.074 140.972 34.792 140.114 35.91C139.62 36.69 139.048 36.924 138.242 37.054C137.462 37.158 136.24 37.158 135.018 37.106C134.966 36.43 134.706 35.416 134.316 34.74C135.512 34.844 136.604 34.87 137.098 34.87C137.514 34.87 137.774 34.792 138.008 34.454C138.632 33.648 138.892 29.93 139.126 19.608V19.062ZM133.744 13.446H136.11C136.084 24.106 136.058 32.686 129.948 37.366C129.584 36.794 128.752 35.962 128.18 35.546C133.926 31.334 133.718 23.508 133.744 13.446Z" fill="#464646"/>
<path d="M182.968 30.048H185.36V33.012C185.36 33.688 185.62 33.792 187.102 33.792C187.778 33.792 191.106 33.792 191.99 33.792C193.212 33.792 193.42 33.454 193.524 31.114C194.07 31.452 195.006 31.79 195.656 31.92C195.37 35.04 194.694 35.794 192.198 35.794C191.522 35.794 187.57 35.794 186.92 35.794C183.8 35.794 182.968 35.196 182.968 33.038V30.048ZM187.336 29.528L189.052 28.462C189.91 29.398 191.08 30.724 191.678 31.504L189.91 32.752C189.364 31.92 188.22 30.516 187.336 29.528ZM196.176 30.204L198.308 29.606C199.062 31.088 199.972 33.09 200.362 34.312L198.1 35.04C197.736 33.818 196.904 31.764 196.176 30.204ZM179.328 29.684L181.434 30.516C180.94 32.128 180.264 34.156 179.406 35.482L177.248 34.364C178.132 33.168 178.912 31.244 179.328 29.684ZM190.482 20.74H192.744V26.07C192.744 26.772 192.926 26.876 193.992 26.876C194.46 26.876 196.826 26.876 197.45 26.876C198.23 26.876 198.412 26.642 198.516 25.29C198.984 25.628 199.894 25.914 200.518 26.044C200.258 28.28 199.608 28.852 197.71 28.852C197.138 28.852 194.304 28.852 193.732 28.852C191.106 28.852 190.482 28.254 190.482 26.096V20.74ZM184.632 14.084L186.296 13.2C187.518 14.526 189 16.32 189.676 17.516L187.882 18.504C187.258 17.308 185.828 15.41 184.632 14.084ZM185.88 18.764H188.012V27.058C188.012 28.02 187.83 28.462 187.154 28.774C186.478 29.06 185.464 29.06 184.008 29.06C183.904 28.54 183.592 27.838 183.358 27.396C184.32 27.422 185.23 27.422 185.49 27.396C185.802 27.396 185.88 27.318 185.88 27.058V18.764ZM180.186 18.764H186.712V20.558H180.186V18.764ZM177.976 18.27C177.872 17.828 177.534 16.788 177.3 16.242C177.69 16.164 178.158 15.904 178.678 15.488C179.198 15.098 180.888 13.59 182.032 11.978L184.216 12.706C182.708 14.474 180.888 16.164 179.276 17.178V17.23C179.276 17.23 177.976 17.828 177.976 18.27ZM177.976 18.27L177.924 16.736L179.016 16.086L187.388 15.462C187.466 16.008 187.648 16.736 187.778 17.152C179.64 17.88 178.626 18.01 177.976 18.27ZM191.808 14.006H199.036V15.878H191.808V14.006ZM191.834 22.638H199.088V24.51H191.834V22.638ZM178.808 18.764H180.888V22.898C180.888 24.952 180.628 27.63 179.094 29.372C178.73 29.008 177.82 28.306 177.378 28.072C178.678 26.538 178.808 24.51 178.808 22.846V18.764ZM180.55 25.238C182.058 24.9 184.138 24.276 186.322 23.678L186.556 25.004C184.71 25.732 182.89 26.408 181.278 27.006L180.55 25.238ZM180.966 22.248L181.876 21.078C183.15 21.52 184.84 22.196 185.75 22.664L184.84 23.964C183.956 23.47 182.24 22.742 180.966 22.248ZM190.482 12.238H192.77V16.97C192.77 17.724 192.874 17.984 193.602 17.984C194.2 17.984 196.982 17.984 197.632 17.984C198.256 17.984 199.27 17.932 199.79 17.828C199.842 18.426 199.92 19.258 199.998 19.778C199.556 19.934 198.568 19.96 197.71 19.96C197.008 19.96 194.044 19.96 193.498 19.96C191.106 19.96 190.482 19.154 190.482 16.918V12.238Z" fill="#464646"/>
</svg>
